<?xml version="1.0" encoding="UTF-8" standalone="no"?>
<!DOCTYPE svg PUBLIC "-//W3C//DTD SVG 1.1//EN" "http://www.w3.org/Graphics/SVG/1.1/DTD/svg11.dtd">
<svg version="1.1" xmlns="http://www.w3.org/2000/svg" xmlns:xlink="http://www.w3.org/1999/xlink" preserveAspectRatio="xMidYMid meet" viewBox="38.499999999999986 98.91896329019147 534.4314907756376 484.08103670980853" width="530.43" height="480.08"><defs><path d="M340 460C328 460 320 452 320 440C320 428 328 420 340 420C351.6 420 444.4 420 456 420C448 414 442 408 436 400C422.4 400 313.6 400 300 400C288 400 280 392 280 380C280 368 288 360 300 360C311.2 360 400.8 360 412 360C404 338 400 312 400 280C400 274 398 270 394 266C390 262 386 260 380 260C378 260 362 260 360 260C294 260 220 186 220 120C220 112 214 104 208 102C200 98 190 100 184 106C170 122 58 250 44 266C38 274 38 286 44 294C69.6 319.4 274.4 522.6 300 548C320 568 348 580 378 580C394.2 580 523.8 580 540 580C550 580 558 574 560 564C560.8 560.4 567.2 531.6 568 528C572 510 570 492 560 478C556 472 550 466 542 460C501.6 460 360.2 460 340 460ZM160 310C160 282 182 260 210 260C238 260 260 282 260 310C260 338 238 360 210 360C182 360 160 338 160 310Z" id="i1neqe8sgo"></path><radialGradient id="gradienta32SdeivUZ" gradientUnits="userSpaceOnUse" cx="304.72" cy="99.92" dx="304.72" dy="580" r="480.08"><stop style="stop-color: #32586f;stop-opacity: 1" offset="0%"></stop><stop style="stop-color: #010000;stop-opacity: 1" offset="100%"></stop></radialGradient><path d="M378 560C354 560 332 550 314 534C297.07 517.07 212.4 432.4 60 280L200 120C200 120 200 120 200 120C200 198 282 280 360 280C361.33 280 368 280 380 280C380 280 380 280 380 280C378 370 412 436 500 464C506 466 510 468 516 468C516 468 516 468 516 468C540 474 556 500 550 524C549.33 526.4 546 538.4 540 560C442.8 560 388.8 560 378 560Z" id="b2xw810Un"></path><path d="M210 280C193.43 280 180 293.43 180 310C180 326.57 193.43 340 210 340C226.57 340 240 326.57 240 310C240 293.43 226.57 280 210 280Z" id="d4Kx5az9pa"></path><linearGradient id="gradienth1ViiJV414" gradientUnits="userSpaceOnUse" x1="210" y1="280" x2="210" y2="340"><stop style="stop-color: #43cccb;stop-opacity: 1" offset="0%"></stop><stop style="stop-color: #010000;stop-opacity: 1" offset="100%"></stop></linearGradient><path d="M300 380L390 380" id="aRIAD2UtA"></path><path d="M340 440L450 440" id="alVOV8R8v"></path></defs><g><g><use xlink:href="#i1neqe8sgo" opacity="1" fill="url(#gradienta32SdeivUZ)"></use><g><use xlink:href="#i1neqe8sgo" opacity="1" fill-opacity="0" stroke="#000000" stroke-width="1" stroke-opacity="0"></use></g></g><g><use xlink:href="#b2xw810Un" opacity="1" fill="#000000" fill-opacity="0"></use><g><use xlink:href="#b2xw810Un" opacity="1" fill-opacity="0" stroke="#ffffff" stroke-width="2" stroke-opacity="1"></use></g></g><g><use xlink:href="#d4Kx5az9pa" opacity="1" fill="url(#gradienth1ViiJV414)"></use><g><use xlink:href="#d4Kx5az9pa" opacity="1" fill-opacity="0" stroke="#000000" stroke-width="2" stroke-opacity="0"></use></g></g><g><use xlink:href="#aRIAD2UtA" opacity="1" fill="#000000" fill-opacity="0"></use><g><use xlink:href="#aRIAD2UtA" opacity="1" fill-opacity="0" stroke="#000000" stroke-width="2" stroke-opacity="1"></use></g></g><g><use xlink:href="#alVOV8R8v" opacity="1" fill="#000000" fill-opacity="0"></use><g><use xlink:href="#alVOV8R8v" opacity="1" fill-opacity="0" stroke="#000000" stroke-width="2" stroke-opacity="1"></use></g></g></g></svg>